# xmcd
#
# Track frame offsets:
#	150
#	15783
#	28009
#	47732
#	63004
#	76968
#	93177
#	106414
#	127348
#	142262
#	161376
# Disc length: 2327 seconds
# Revision: 1
# Processed by: cddbd v1.5.2PL0 Copyright (c) Steve Scherf et al.
#
# Submitted via: libkcddb 0.31
#
DISCID=8509150b
DTITLE=Darrel Arnold And The Dead Buffaloes - here or somewhers else
DYEAR=1999
DGENRE=
TTITLE0=Consolation
TTITLE1=St. Louis
TTITLE2=A Sadness in this World
TTITLE3=Cold Wind Blowin'
TTITLE4=Break Right Thru
TTITLE5=Westward Bound
TTITLE6=Empty Hands
TTITLE7=Love
TTITLE8=Eat U Up
TTITLE9=Western Skies
TTITLE10=The Grass is Always Greener
EXTD=
EXTT0=
EXTT1=
EXTT2=
EXTT3=
EXTT4=
EXTT5=
EXTT6=
EXTT7=
EXTT8=
EXTT9=
EXTT10=
PLAYORDER=
